<?xml version="1.0" encoding="UTF-8" standalone="no"?>
<!-- Generator: Adobe Illustrator 19.0.0, SVG Export Plug-In . SVG Version: 6.00 Build 0)  -->

<svg
   xmlns:dc="http://purl.org/dc/elements/1.1/"
   xmlns:cc="http://creativecommons.org/ns#"
   xmlns:rdf="http://www.w3.org/1999/02/22-rdf-syntax-ns#"
   xmlns:svg="http://www.w3.org/2000/svg"
   xmlns="http://www.w3.org/2000/svg"
   xmlns:sodipodi="http://sodipodi.sourceforge.net/DTD/sodipodi-0.dtd"
   xmlns:inkscape="http://www.inkscape.org/namespaces/inkscape"
   version="1.1"
   id="Capa_1"
   x="0px"
   y="0px"
   viewBox="0 0 366.6 366.6"
   style="enable-background:new 0 0 366.6 366.6;"
   xml:space="preserve"
   sodipodi:docname="tshirt.svg"
   inkscape:version="0.92.5 (2060ec1f9f, 2020-04-08)"><metadata
   id="metadata3908"><rdf:RDF><cc:Work
       rdf:about=""><dc:format>image/svg+xml</dc:format><dc:type
         rdf:resource="http://purl.org/dc/dcmitype/StillImage" /></cc:Work></rdf:RDF></metadata><defs
   id="defs3906" /><sodipodi:namedview
   pagecolor="#ffffff"
   bordercolor="#666666"
   borderopacity="1"
   objecttolerance="10"
   gridtolerance="10"
   guidetolerance="10"
   inkscape:pageopacity="0"
   inkscape:pageshadow="2"
   inkscape:window-width="2560"
   inkscape:window-height="1361"
   id="namedview3904"
   showgrid="false"
   inkscape:zoom="3.6416192"
   inkscape:cx="250.61055"
   inkscape:cy="232.06604"
   inkscape:window-x="1920"
   inkscape:window-y="0"
   inkscape:window-maximized="1"
   inkscape:current-layer="g3869" />
<g
   id="g3871">
	<g
   id="g3869">
		<path
   d="m 227.30664,39.841797 c -6.23647,0.757688 -3.42305,8.304877 -5.58398,12.347656 -6.16717,20.985334 -31.20344,34.096857 -51.81446,26.037109 -15.27414,-5.302348 -25.96813,-20.421666 -27.07812,-36.330078 -4.11291,-4.24183 -10.7157,-0.569162 -15.95313,-1.796875 -14.06642,0.258842 -28.337288,-0.5058 -42.281247,0.375 C 76.571301,45.060033 71.735034,53.48859 64.587891,59.21875 44.524781,79.545231 23.453279,99.131766 4.1542969,120.05664 c 0.3508067,3.40828 6.1764831,8.23205 10.1298311,12.15935 17.618542,17.15697 33.40926,34.08842 51.569952,50.55205 4.655522,4.27798 8.031573,-2.38614 15.484858,-9.18295 0.239085,7.47712 -0.01231,11.39734 0.600515,15.86218 0.705682,45.10736 -0.602664,90.43657 0.652344,135.44531 5.062097,2.16948 10.566351,1.76083 15.945311,1.6059 61.467412,-0.18549 122.966922,0.38419 184.414062,-0.29145 3.17911,-3.96928 1.75248,-9.99585 1.94922,-16.14453 V 172.31055 c 9.86575,8.83623 13.19244,13.14809 16.75583,10.61223 11.18405,-8.62854 18.03784,-18.91951 28.4507,-28.57968 10.7634,-11.02826 22.53999,-21.38181 32.35988,-33.14388 -3.51482,-5.48766 -5.40685,-7.19173 -10.89012,-12.70585 -22.91906,-22.624027 -45.47925,-45.645186 -68.63137,-68.003136 -18.45475,-1.17792 -37.15994,0.308031 -55.63867,-0.648437 z m 3.55664,6.257812 h 49.29297 c 24.79622,24.796224 49.59245,49.592448 74.38867,74.388671 -18.50583,18.65627 -37.01437,37.30986 -55.51953,55.9668 -8.73015,-7.66916 -13.99751,-15.25381 -18.17187,-16.10938 -3.29772,2.21363 -2.74792,6.18513 -2.75391,14.36133 V 320.5 H 88.503906 c -0.279104,-52.95372 0.54121,-106.00716 -0.414062,-158.89844 -3.145069,-4.15306 -7.53358,1.31884 -9.796875,3.54883 -3.451802,3.74398 -3.837581,4.00714 -10.374188,10.8603 C 49.88536,158.63392 29.46788,138.52559 11.644531,120.90039 36.444051,96.100301 61.243467,71.300108 86.042969,46.5 h 50.882811 c 3.55837,26.001414 31.42287,45.608591 57.06055,38.783203 18.29372,-4.279289 33.10282,-20.413223 35.16601,-39.183594 h 1 z"
   id="path3867"
   inkscape:connector-curvature="0"
   sodipodi:nodetypes="ccccccccccccccccccccccccccccccccccccccccc" />
	</g>
</g>
<g
   id="g3873">
</g>
<g
   id="g3875">
</g>
<g
   id="g3877">
</g>
<g
   id="g3879">
</g>
<g
   id="g3881">
</g>
<g
   id="g3883">
</g>
<g
   id="g3885">
</g>
<g
   id="g3887">
</g>
<g
   id="g3889">
</g>
<g
   id="g3891">
</g>
<g
   id="g3893">
</g>
<g
   id="g3895">
</g>
<g
   id="g3897">
</g>
<g
   id="g3899">
</g>
<g
   id="g3901">
</g>
</svg>