<?xml version="1.0" encoding="UTF-8" standalone="no"?>
<!-- Generator: Adobe Illustrator 19.0.0, SVG Export Plug-In . SVG Version: 6.00 Build 0)  -->

<svg
   xmlns:dc="http://purl.org/dc/elements/1.1/"
   xmlns:cc="http://creativecommons.org/ns#"
   xmlns:rdf="http://www.w3.org/1999/02/22-rdf-syntax-ns#"
   xmlns:svg="http://www.w3.org/2000/svg"
   xmlns="http://www.w3.org/2000/svg"
   xmlns:sodipodi="http://sodipodi.sourceforge.net/DTD/sodipodi-0.dtd"
   xmlns:inkscape="http://www.inkscape.org/namespaces/inkscape"
   version="1.1"
   id="Capa_1"
   x="0px"
   y="0px"
   viewBox="0 0 366.6 366.6"
   style="enable-background:new 0 0 366.6 366.6;"
   xml:space="preserve"
   sodipodi:docname="tshirt-mask.svg"
   inkscape:version="0.92.5 (2060ec1f9f, 2020-04-08)"><metadata
   id="metadata3908"><rdf:RDF><cc:Work
       rdf:about=""><dc:format>image/svg+xml</dc:format><dc:type
         rdf:resource="http://purl.org/dc/dcmitype/StillImage" /></cc:Work></rdf:RDF></metadata><defs
   id="defs3906" /><sodipodi:namedview
   pagecolor="#ffffff"
   bordercolor="#666666"
   borderopacity="1"
   objecttolerance="10"
   gridtolerance="10"
   guidetolerance="10"
   inkscape:pageopacity="0"
   inkscape:pageshadow="2"
   inkscape:window-width="2560"
   inkscape:window-height="1361"
   id="namedview3904"
   showgrid="false"
   inkscape:zoom="1.8208096"
   inkscape:cx="366.94612"
   inkscape:cy="104.12673"
   inkscape:window-x="1920"
   inkscape:window-y="0"
   inkscape:window-maximized="1"
   inkscape:current-layer="g3869" />
<g
   id="g3871">
	<g
   id="g3869">
		<path
   d="M -0.54882812,-0.26953125 V 367.14844 H 366.86914 V -0.26953125 Z M 137.35547,39.787109 c 2.03932,0.04052 3.93227,0.518689 5.47461,2.109375 1.10999,15.908412 11.80398,31.027732 27.07812,36.330078 20.61102,8.059748 45.64729,-5.051775 51.81446,-26.037109 2.16093,-4.042779 -0.65249,-11.589968 5.58398,-12.347656 18.47873,0.956468 37.18392,-0.529483 55.63867,0.648437 23.15212,22.35795 45.7118,45.379884 68.63086,68.003906 5.48327,5.51412 7.37581,7.21742 10.89063,12.70508 -9.81989,11.76207 -21.59598,22.11627 -32.35938,33.14453 -10.41286,9.66017 -17.26712,19.94959 -28.45117,28.57813 -3.56339,2.53581 -6.89011,-1.7751 -16.75586,-10.61133 V 310.0625 c -0.19674,6.14868 1.22989,12.17525 -1.94922,16.14453 -61.44714,0.67564 -122.94665,0.10553 -184.414061,0.29102 -5.37896,0.15493 -10.883215,0.56401 -15.945312,-1.60547 -1.255008,-45.00874 0.05334,-90.33795 -0.652344,-135.44531 -0.612829,-4.46484 -0.360524,-8.38421 -0.599609,-15.86133 -7.453285,6.79681 -10.830806,13.45962 -15.486328,9.18164 C 47.692824,166.30395 31.901745,149.37377 14.283203,132.2168 10.329855,128.2895 4.5051036,123.46492 4.1542969,120.05664 23.453279,99.131771 44.524781,79.545231 64.587891,59.21875 c 7.147143,-5.73016 11.98341,-14.158717 20.007812,-18.744141 13.943959,-0.8808 28.214827,-0.116158 42.281247,-0.375 3.2734,0.767321 7.07966,-0.38003 10.47852,-0.3125 z"
   id="path28"
   inkscape:connector-curvature="0"
   sodipodi:nodetypes="cccccsccccccccccccccccccccccs"
   style="fill:#ffffff;fill-opacity:1" />
	</g>
</g>
<g
   id="g3873">
</g>
<g
   id="g3875">
</g>
<g
   id="g3877">
</g>
<g
   id="g3879">
</g>
<g
   id="g3881">
</g>
<g
   id="g3883">
</g>
<g
   id="g3885">
</g>
<g
   id="g3887">
</g>
<g
   id="g3889">
</g>
<g
   id="g3891">
</g>
<g
   id="g3893">
</g>
<g
   id="g3895">
</g>
<g
   id="g3897">
</g>
<g
   id="g3899">
</g>
<g
   id="g3901">
</g>
</svg>