<?xml version="1.0" encoding="UTF-8" standalone="no"?>
<svg
   xmlns:dc="http://purl.org/dc/elements/1.1/"
   xmlns:cc="http://creativecommons.org/ns#"
   xmlns:rdf="http://www.w3.org/1999/02/22-rdf-syntax-ns#"
   xmlns:svg="http://www.w3.org/2000/svg"
   xmlns="http://www.w3.org/2000/svg"
   xmlns:sodipodi="http://sodipodi.sourceforge.net/DTD/sodipodi-0.dtd"
   xmlns:inkscape="http://www.inkscape.org/namespaces/inkscape"
   sodipodi:docname="tshirt-mask.svg"
   inkscape:version="1.0 (4035a4fb49, 2020-05-01)"
   id="svg8"
   version="1.1"
   viewBox="0 0 947.83282 947.83282"
   height="947.83282mm"
   width="947.83282mm">
  <defs
     id="defs2" />
  <sodipodi:namedview
     inkscape:window-maximized="1"
     inkscape:window-y="0"
     inkscape:window-x="1920"
     inkscape:window-height="1361"
     inkscape:window-width="2560"
     showgrid="false"
     inkscape:document-rotation="0"
     inkscape:current-layer="layer1"
     inkscape:document-units="mm"
     inkscape:cy="1886.1631"
     inkscape:cx="2234.6943"
     inkscape:zoom="0.24748737"
     inkscape:pageshadow="2"
     inkscape:pageopacity="0.0"
     borderopacity="1.0"
     bordercolor="#666666"
     pagecolor="#ffffff"
     id="base" />
  <metadata
     id="metadata5">
    <rdf:RDF>
      <cc:Work
         rdf:about="">
        <dc:format>image/svg+xml</dc:format>
        <dc:type
           rdf:resource="http://purl.org/dc/dcmitype/StillImage" />
        <dc:title></dc:title>
      </cc:Work>
    </rdf:RDF>
  </metadata>
  <g
     transform="translate(281.67716,379.46225)"
     id="layer1"
     inkscape:groupmode="layer"
     inkscape:label="Layer 1">
    <path
       sodipodi:nodetypes="ccccccccccccccccccc"
       transform="matrix(0.26458333,0,0,0.26458333,-281.67716,-379.46225)"
       d="M 3584.1779,4.0406043 -0.65191043,2.6084855 -0.7234033,3583.8124 3585.3574,3586.5525 Z M 1341.9434,26.052734 c 394.127,859.332056 537.8954,940.897756 948.9218,8.41211 0,0 547.0514,93.859976 653.0918,364.041016 l 413.75,942.30464 c 0,0 -400.7381,159.3427 -554.457,327.5762 l -53.875,-33.0097 25.1348,1928.6406 -1903.28128,0.033 15.43359,-1923.9903 -41.91602,15.2891 c -50.29122,-122.0149 -589.29882,-333.2344 -589.29882,-333.2344 0,0 317.63999,-689.62708 398.18554,-882.95895 74.99473,-213.49247 287.55078,-287.55078 287.55078,-287.55078 z"
       style="fill:#ffffff;fill-opacity:1;stroke:#000000;stroke-width:0;stroke-linecap:butt;stroke-linejoin:miter;stroke-miterlimit:4;stroke-dasharray:none;stroke-opacity:1"
       id="path867" />
  </g>
</svg>
