<?xml version="1.0" encoding="UTF-8" standalone="no"?>
<!-- Generator: Adobe Illustrator 19.0.0, SVG Export Plug-In . SVG Version: 6.00 Build 0)  -->

<svg
   xmlns:dc="http://purl.org/dc/elements/1.1/"
   xmlns:cc="http://creativecommons.org/ns#"
   xmlns:rdf="http://www.w3.org/1999/02/22-rdf-syntax-ns#"
   xmlns:svg="http://www.w3.org/2000/svg"
   xmlns="http://www.w3.org/2000/svg"
   xmlns:sodipodi="http://sodipodi.sourceforge.net/DTD/sodipodi-0.dtd"
   xmlns:inkscape="http://www.inkscape.org/namespaces/inkscape"
   version="1.1"
   id="Capa_1"
   x="0px"
   y="0px"
   viewBox="0 0 366.6 366.6"
   style="enable-background:new 0 0 366.6 366.6;"
   xml:space="preserve"
   sodipodi:docname="tshirt-clip.svg"
   inkscape:version="0.92.5 (2060ec1f9f, 2020-04-08)"><metadata
   id="metadata3908"><rdf:RDF><cc:Work
       rdf:about=""><dc:format>image/svg+xml</dc:format><dc:type
         rdf:resource="http://purl.org/dc/dcmitype/StillImage" /><dc:title></dc:title></cc:Work></rdf:RDF></metadata><defs
   id="defs3906" /><sodipodi:namedview
   pagecolor="#ffffff"
   bordercolor="#666666"
   borderopacity="1"
   objecttolerance="10"
   gridtolerance="10"
   guidetolerance="10"
   inkscape:pageopacity="0"
   inkscape:pageshadow="2"
   inkscape:window-width="2560"
   inkscape:window-height="1361"
   id="namedview3904"
   showgrid="false"
   inkscape:zoom="1.8208096"
   inkscape:cx="366.94612"
   inkscape:cy="104.12673"
   inkscape:window-x="1920"
   inkscape:window-y="0"
   inkscape:window-maximized="1"
   inkscape:current-layer="g3869" />
<g
   id="g3871">
	<g
   id="g3869">
		<path
   d="m 229.15234,46.099609 h 1 0.71094 49.29297 c 24.79622,24.796224 49.59245,49.592449 74.38867,74.388671 -18.50583,18.65627 -37.01437,37.30986 -55.51953,55.9668 -8.73015,-7.66916 -13.99751,-15.25381 -18.17187,-16.10938 -3.29772,2.21363 -2.74792,6.18513 -2.75391,14.36133 V 320.5 H 88.503906 c -0.279104,-52.95372 0.54121,-106.00716 -0.414062,-158.89844 -3.145069,-4.15306 -7.53358,1.31884 -9.796875,3.54883 -3.451802,3.74398 -3.838393,4.00622 -10.375,10.85938 C 49.884548,158.633 29.46788,138.52559 11.644531,120.90039 36.444051,96.100302 61.243467,71.300108 86.042969,46.5 h 50.882811 c 3.55837,26.001414 31.42287,45.608591 57.06055,38.783203 18.29372,-4.279289 33.10282,-20.413223 35.16601,-39.183594 z"
   id="path3867"
   inkscape:connector-curvature="0"
   sodipodi:nodetypes="cccccccccccccccccc" />
	</g>
</g>
<g
   id="g3873">
</g>
<g
   id="g3875">
</g>
<g
   id="g3877">
</g>
<g
   id="g3879">
</g>
<g
   id="g3881">
</g>
<g
   id="g3883">
</g>
<g
   id="g3885">
</g>
<g
   id="g3887">
</g>
<g
   id="g3889">
</g>
<g
   id="g3891">
</g>
<g
   id="g3893">
</g>
<g
   id="g3895">
</g>
<g
   id="g3897">
</g>
<g
   id="g3899">
</g>
<g
   id="g3901">
</g>
</svg>